#!OML:ASF F:\VICON\USERDATA\INSTALL\rory3\rory3.ASF
:FULLY-SPECIFIED
:DEGREES
3909
root -0.0224754 18.4407 -0.129144 -899.916 -40.3921 -542.109
lowerback 5.58469 3.81541 2.63249
upperback 2.22898 5.14714 0.35034
thorax -0.625258 2.5528 -1.40856
lowerneck -11.0175 2.80622 -0.34876
upperneck 12.4846 1.89685 11.3953
head 5.47136 1.602 3.78793
rclavicle -1.19718e-013 -7.15625e-015
rhumerus 207.514 -203.898 -242.881
rradius 62.557
rwrist -60.739
rhand -19.8293 347.664
rfingers 7.12502
rthumb 6.50459 -42.2165
lclavicle -1.19718e-013 -7.15625e-015
lhumerus -0.103875 14.0164 48.3187
lradius 79.9594
lwrist 61.0042
lhand -28.7943 30.6632
lfingers 7.12502
lthumb -2.15308 60.6321
rfemur 0.395349 12.3853 17.0315
rtibia 29.6459
rfoot -24.5218 -21.1451
rtoes -10.433
lfemur -14.3665 -14.3782 -7.35639
ltibia 26.2625
lfoot -7.53935 3.83988
ltoes -11.7968
3910
root -0.0563497 18.4383 -0.123187 -900.021 -40.3957 -541.958
lowerback 5.37138 3.80555 2.67266
upperback 2.22623 5.1318 0.517632
thorax -0.522232 2.54615 -1.24357
lowerneck -10.9028 2.78489 -0.631592
upperneck 12.6505 1.88088 11.5372
head 5.49772 1.59168 3.88023
rclavicle 1.12612e-013 -1.90833e-014
rhumerus 208.256 -203.454 -242.689
rradius 61.999
rwrist -65.4615
rhand -22.0139 347.772
rfingers 7.12502
rthumb 4.39538 -42.162
lclavicle 1.12612e-013 -1.90833e-014
lhumerus 1.23966 14.7166 48.0568
lradius 78.4258
lwrist 65.1506
lhand -27.3145 31.4152
lfingers 7.12502
lthumb -0.72385 61.3937
rfemur 0.444009 12.3209 17.0483
rtibia 29.6546
rfoot -24.439 -21.0757
rtoes -10.7532
lfemur -14.0635 -15.1422 -7.33983
ltibia 25.3889
lfoot -7.44138 3.85829
ltoes -11.5276
3911
root -0.0922031 18.4401 -0.117941 -899.906 -40.3997 -542.167
lowerback 5.13108 3.82899 2.42538
upperback 2.2305 5.14669 0.568183
thorax -0.410756 2.55452 -1.03874
lowerneck -10.8932 2.75642 -0.768593
upperneck 12.9764 1.81256 11.635
head 5.59867 1.56584 3.937
rclavicle 6.77856e-014 1.03368e-014
rhumerus 208.963 -202.801 -242.735
rradius 61.2985
rwrist -69.8504
rhand -23.4541 347.743
rfingers 7.12502
rthumb 3.00459 -42.2155
lclavicle 6.77856e-014 1.03368e-014
lhumerus 2.41087 15.2278 47.6958
lradius 77.1758
lwrist 69.8394
lhand -26.1263 31.7546
lfingers 7.12502
lthumb 0.423758 61.734
rfemur 0.548942 12.2337 16.7621
rtibia 29.6605
rfoot -24.4009 -20.9433
rtoes -11.0154
lfemur -13.7139 -16.0078 -7.66831
ltibia 24.646
lfoot -7.45523 4.44807
ltoes -11.3
3912
root -0.129938 18.4394 -0.110153 -899.785 -40.3583 -542.319
lowerback 4.87599 3.87321 2.2711
upperback 2.20314 5.19574 0.601706
thorax -0.312632 2.58045 -0.904156
lowerneck -10.8421 2.72767 -0.766649
upperneck 13.3303 1.73277 11.6248
head 5.70545 1.53271 3.93519
rclavicle 7.32522e-014 2.38542e-015
rhumerus 209.691 -202.081 -242.839
rradius 60.5396
rwrist -73.8123
rhand -24.3305 347.309
rfingers 7.12502
rthumb 2.15817 -42.6598
lclavicle 7.32522e-014 2.38542e-015
lhumerus 3.37869 15.3125 46.9837
lradius 76.1685
lwrist 75.3523
lhand -25.3457 31.9994
lfingers 7.12502
lthumb 1.17771 61.9759
rfemur 0.544564 12.3403 16.5045
rtibia 29.6898
rfoot -24.4899 -20.8124
rtoes -10.6645
lfemur -13.3982 -16.6882 -7.9816
ltibia 24.0144
lfoot -7.48996 5.54424
ltoes -10.7572
3913
root -0.170292 18.4367 -0.102359 -899.77 -40.3167 -542.417
lowerback 4.68425 3.89095 2.15614
upperback 2.19457 5.21166 0.686935
thorax -0.23282 2.58871 -0.740916
lowerneck -10.7379 2.66788 -0.888809
upperneck 13.6267 1.63991 11.6271
head 5.78381 1.48535 3.95446
rclavicle -1.21855e-013 3.18055e-014
rhumerus 210.599 -201.402 -242.964
rradius 59.6596
rwrist -77.6367
rhand -25.1943 346.664
rfingers 7.12502
rthumb 1.32395 -43.3115
lclavicle -1.21855e-013 3.18055e-014
lhumerus 4.36329 15.2806 46.1708
lradius 75.0938
lwrist 81.3017
lhand -24.8333 32.2866
lfingers 7.12502
lthumb 1.67252 62.2598
rfemur 0.587994 12.467 16.3023
rtibia 29.7688
rfoot -24.6198 -20.7011
rtoes -10.4278
lfemur -12.993 -17.0499 -8.30615
ltibia 23.4791
lfoot -7.58977 6.75126
ltoes -9.54512
3914
root -0.211759 18.4364 -0.0950628 -899.884 -40.2559 -542.414
lowerback 4.51844 3.87186 2.03978
upperback 2.22577 5.17669 0.814562
thorax -0.131912 2.57061 -0.531862
lowerneck -10.7155 2.63801 -0.93351
upperneck 13.9819 1.5735 11.5781
head 5.89497 1.45468 3.94969
rclavicle -5.2181e-015 -1.74931e-014
rhumerus 211.645 -200.765 -243.312
rradius 58.7071
rwrist -81.0541
rhand -26.3687 346.178
rfingers 7.12502
rthumb 0.189612 -43.8013
lclavicle -5.2181e-015 -1.74931e-014
lhumerus 5.45889 15.7299 45.6243
lradius 73.7904
lwrist 86.7908
lhand -23.9811 32.6722
lfingers 7.12502
lthumb 2.49566 62.6374
rfemur 0.693125 12.5329 16.2098
rtibia 29.8636
rfoot -24.5817 -20.6875
rtoes -10.5361
lfemur -12.5039 -17.0999 -8.59046
ltibia 23.0774
lfoot -7.87725 7.83208
ltoes -8.539
3915
root -0.255892 18.4362 -0.0812409 -899.894 -40.1353 -542.512
lowerback 4.39407 3.89755 1.8832
upperback 2.20751 5.20385 0.904357
thorax -0.103431 2.58325 -0.347165
lowerneck -10.5771 2.62172 -1.0474
upperneck 14.2577 1.51569 11.6984
head 5.95811 1.42883 4.00696
rclavicle -6.2965e-014 8.74653e-015
rhumerus 212.586 -200.134 -243.747
rradius 57.8305
rwrist -83.93
rhand -28.0156 345.993
rfingers 7.12502
rthumb -1.40093 -43.9825
lclavicle -6.2965e-014 8.74653e-015
lhumerus 6.6934 16.4184 45.5501
lradius 72.3573
lwrist 91.5231
lhand -23.4795 32.982
lfingers 7.12502
lthumb 2.98006 62.9409
rfemur 0.733131 12.5443 15.9821
rtibia 29.9722
rfoot -24.3945 -20.6484
rtoes -11.2995
lfemur -12.0505 -16.9927 -8.98556
ltibia 22.7601
lfoot -8.25533 8.56026
ltoes -8.40934
3916
root -0.302863 18.4355 -0.0652662 -899.903 -40.0237 -542.61
lowerback 4.28454 3.95397 1.8193
upperback 2.13506 5.2789 0.939454
thorax -0.124699 2.62106 -0.274422
lowerneck -10.2159 2.5988 -1.07745
upperneck 14.4617 1.43181 11.8605
head 5.96265 1.38622 4.05491
rclavicle -1.61016e-014 -5.56597e-015
rhumerus 213.414 -199.439 -244.313
rradius 56.9074
rwrist -86.2517
rhand -29.6651 346.194
rfingers 7.12502
rthumb -2.994 -43.765
lclavicle -1.61016e-014 -5.56597e-015
lhumerus 8.02355 16.872 45.5278
lradius 70.8758
lwrist 95.7877
lhand -23.5933 32.7978
lfingers 7.12502
lthumb 2.8701 62.7583
rfemur 0.762324 12.5537 15.7334
rtibia 30.0847
rfoot -24.1122 -20.6439
rtoes -12.1631
lfemur -11.5847 -16.6947 -9.4156
ltibia 22.4768
lfoot -8.58917 8.78342
ltoes -8.55471
3917
root -0.34953 18.4362 -0.0510528 -900.067 -39.9243 -542.565
lowerback 4.19596 4.0152 1.82433
upperback 2.0899 5.36113 1.02554
thorax -0.128168 2.66206 -0.188181
lowerneck -9.98283 2.53181 -1.04879
upperneck 14.8315 1.27966 11.8859
head 6.04855 1.31258 4.05128
rclavicle -1.91827e-014 -3.97569e-015
rhumerus 214.284 -198.667 -244.978
rradius 55.9167
rwrist -87.8295
rhand -31.3242 346.027
rfingers 7.12502
rthumb -4.59617 -43.903
lclavicle -1.91827e-014 -3.97569e-015
lhumerus 9.41916 17.352 45.6265
lradius 69.3159
lwrist 99.3901
lhand -23.5881 32.8862
lfingers 7.12502
lthumb 2.87514 62.8466
rfemur 0.868132 12.6808 15.6511
rtibia 30.1973
rfoot -23.9183 -20.662
rtoes -12.5687
lfemur -11.064 -16.2713 -9.72414
ltibia 22.18
lfoot -8.81025 8.81053
ltoes -9.03657
3918
root -0.398941 18.4423 -0.033485 -900.213 -39.801 -542.567
lowerback 4.1284 4.11793 1.86227
upperback 2.04156 5.50051 1.07152
thorax -0.13891 2.73215 -0.164532
lowerneck -9.79477 2.39499 -0.98489
upperneck 15.2251 1.03251 11.8464
head 6.15777 1.19228 4.01522
rclavicle -1.98785e-015 2.54444e-014
rhumerus 215.117 -197.822 -245.78
rradius 54.9137
rwrist -88.6364
rhand -32.7772 345.467
rfingers 7.12502
rthumb -5.9991 -44.4282
lclavicle -1.98785e-015 2.54444e-014
lhumerus 10.9533 17.7174 45.864
lradius 67.691
lwrist 102.301
lhand -23.5443 32.9273
lfingers 7.12502
lthumb 2.91746 62.8871
rfemur 1.05041 12.706 15.5063
rtibia 30.267
rfoot -23.9997 -20.4212
rtoes -11.9078
lfemur -10.5839 -16.0235 -10.0407
ltibia 21.8671
lfoot -8.91519 9.12644
ltoes -9.89848
